Coordinates
version=1
nRows=16
nColumns=38
inDegrees=no

Units are S.I. units (second, meters, Newtons, ...)
If the header above contains a line with 'inDegrees', this indicates whether rotational values are in degrees (yes) or radians (no).

endheader
time	pelvis_tilt	pelvis_list	pelvis_rotation	pelvis_tx	pelvis_ty	pelvis_tz	hip_flexion_r	hip_adduction_r	hip_rotation_r	knee_angle_r	ankle_angle_r	subtalar_angle_r	mtp_angle_r	hip_flexion_l	hip_adduction_l	hip_rotation_l	knee_angle_l	ankle_angle_l	subtalar_angle_l	mtp_angle_l	lumbar_extension	lumbar_bending	lumbar_rotation	arm_flex_r	arm_add_r	arm_rot_r	elbow_flex_r	pro_sup_r	wrist_flex_r	wrist_dev_r	arm_flex_l	arm_add_l	arm_rot_l	elbow_flex_l	pro_sup_l	wrist_flex_l	wrist_dev_l
2.7175	-0.197471	-0.00559126	-3.03783	-0.14455	0.951921	-0.022899	-0.426429	0.114678	-0.126716	0.186345	0.408678	0	0	0.375045	0.00269561	-0.127336	0.285076	0.1984	0	0	-0.46132	0.0223662	0.0788627	0.933147	-0.36748	1.11274	1.00557	0.783545	0	0	-0.141432	-0.359661	1.41348	0.471334	0.0838606	0	0
2.7275	-0.196383	-0.00657509	-3.03668	-0.144969	0.948738	-0.0224231	-0.440577	0.113555	-0.126793	0.188792	0.414956	0	0	0.377617	0.011208	-0.109944	0.255963	0.207197	0	0	-0.460273	0.0204088	0.0813191	0.934184	-0.37102	1.09698	1.01873	0.794029	0	0	-0.149534	-0.36256	1.41356	0.468433	0.0741807	0	0
2.73749	-0.195355	-0.00815856	-3.03674	-0.145682	0.945736	-0.0219347	-0.454005	0.111085	-0.126214	0.192959	0.419587	0	0	0.380293	0.0194516	-0.0924376	0.234322	0.213921	0	0	-0.459041	0.0173433	0.0843621	0.933156	-0.374021	1.08221	1.03036	0.802891	0	0	-0.156588	-0.365217	1.41364	0.465721	0.0640452	0	0
2.74748	-0.194469	-0.0103645	-3.03803	-0.146705	0.94295	-0.0214441	-0.466776	0.10722	-0.125052	0.198831	0.422258	0	0	0.383138	0.0272928	-0.076149	0.220687	0.217854	0	0	-0.457637	0.0131546	0.087968	0.930066	-0.376454	1.06854	1.0404	0.810286	0	0	-0.162615	-0.367665	1.41371	0.463273	0.0540966	0	0
2.75747	-0.193775	-0.0132179	-3.0405	-0.14805	0.940399	-0.0209592	-0.478891	0.101924	-0.123462	0.206431	0.422651	0	0	0.386188	0.0346704	-0.0622674	0.215213	0.218266	0	0	-0.456046	0.00784227	0.0920756	0.924918	-0.378295	1.05604	1.04881	0.816368	0	0	-0.167646	-0.369937	1.41378	0.461148	0.0449076	0	0
2.76746	-0.193286	-0.0167436	-3.04409	-0.149725	0.938085	-0.0204846	-0.490266	0.0951566	-0.121681	0.215854	0.420456	0	0	0.389442	0.041586	-0.0516493	0.217614	0.214504	0	0	-0.454217	0.00141589	0.0966032	0.917726	-0.379528	1.04481	1.05552	0.8213	0	0	-0.171707	-0.37206	1.41385	0.459396	0.0369025	0	0
2.77745	-0.192976	-0.0209618	-3.04871	-0.151731	0.936007	-0.0200191	-0.500729	0.0868794	-0.120006	0.22728	0.415362	0	0	0.392859	0.0480871	-0.0447391	0.227192	0.206143	0	0	-0.452073	-0.00610247	0.101456	0.908519	-0.380138	1.03495	1.06044	0.825242	0	0	-0.17482	-0.374047	1.41393	0.458046	0.030294	0	0
2.78744	-0.192788	-0.0258735	-3.05425	-0.154064	0.934154	-0.0195563	-0.510026	0.077063	-0.118764	0.240978	0.407064	0	0	0.396376	0.0542379	-0.0416106	0.242962	0.193164	0	0	-0.449521	-0.014664	0.106538	0.897357	-0.380121	1.02657	1.06348	0.828348	0	0	-0.176998	-0.375888	1.414	0.45711	0.0251053	0	0
2.79743	-0.192646	-0.0314416	-3.06062	-0.156709	0.932515	-0.0190858	-0.517844	0.0657074	-0.11826	0.257297	0.395272	0	0	0.399934	0.060083	-0.0420755	0.263806	0.17608	0	0	-0.446467	-0.0241738	0.111757	0.884336	-0.379473	1.01981	1.06451	0.830742	0	0	-0.17824	-0.377548	1.41407	0.456573	0.0212351	0	0
2.80742	-0.192461	-0.0375834	-3.06768	-0.159645	0.931075	-0.018595	-0.523836	0.0528539	-0.118732	0.276644	0.37973	0	0	0.4035	0.0656303	-0.045774	0.28863	0.155928	0	0	-0.442831	-0.034481	0.11702	0.869604	-0.378193	1.01483	1.06338	0.832504	0	0	-0.178533	-0.378969	1.41414	0.456399	0.0185099	0	0
2.81741	-0.192148	-0.0441732	-3.07529	-0.16284	0.929821	-0.0180696	-0.527665	0.0385918	-0.120347	0.299452	0.360221	0	0	0.407064	0.0708548	-0.0522257	0.316472	0.134121	0	0	-0.438571	-0.0453776	0.122213	0.853367	-0.37627	1.01184	1.05994	0.833649	0	0	-0.177843	-0.380074	1.41422	0.456533	0.0167224	0	0
2.8274	-0.191645	-0.0510511	-3.08327	-0.166249	0.92874	-0.0174943	-0.529033	0.0230632	-0.123188	0.326146	0.336598	0	0	0.410615	0.0757158	-0.0608619	0.346528	0.112259	0	0	-0.433707	-0.0566024	0.127179	0.835893	-0.373683	1.01107	1.05404	0.834108	0	0	-0.176118	-0.380777	1.41429	0.456916	0.0156586	0	0
2.83739	-0.190913	-0.0580413	-3.09143	-0.169814	0.927828	-0.0168532	-0.527646	0.00645594	-0.127246	0.357101	0.308825	0	0	0.414113	0.0801871	-0.0710444	0.378119	0.0919426	0	0	-0.428324	-0.0678613	0.131712	0.817498	-0.370397	1.01279	1.04553	0.833712	0	0	-0.173287	-0.380997	1.41436	0.457498	0.0151158	0	0
2.84739	-0.189941	-0.0649784	-3.0995	-0.173461	0.927082	-0.0161314	-0.523194	-0.0110086	-0.132433	0.39261	0.277015	0	0	0.41747	0.0842908	-0.0820842	0.410615	0.074588	0	0	-0.422567	-0.0788569	0.135546	0.79853	-0.36636	1.01728	1.03427	0.832201	0	0	-0.169259	-0.380672	1.41442	0.45825	0.014913	0	0
2.85738	-0.188743	-0.0717321	-3.10723	-0.177103	0.926509	-0.0153164	-0.515369	-0.0290961	-0.138573	0.432836	0.241446	0	0	0.420518	0.0881174	-0.0932939	0.443362	0.0612612	0	0	-0.416635	-0.0893234	0.138381	0.779351	-0.361515	1.02482	1.02015	0.829215	0	0	-0.163926	-0.379764	1.41448	0.459166	0.0148961	0	0
2.86737	-0.187364	-0.0782183	-3.11436	-0.180645	0.926119	-0.0144012	-0.503908	-0.0475724	-0.145387	0.477765	0.202567	0	0	0.423003	0.091818	-0.104063	0.475637	0.0525859	0	0	-0.410764	-0.0990525	0.13992	0.760308	-0.355808	1.03572	1.00311	0.824299	0	0	-0.15716	-0.378268	1.41454	0.460267	0.0149407	0	0
